<svg width="14" height="14" viewBox="0 0 14 14" fill="none" xmlns="http://www.w3.org/2000/svg">
<g clip-path="url(#clip0)">
<path d="M6.99998 0C10.731 0 13.1399 3.9538 11.4658 7.26002L8.89632 12.7901C8.14622 14.4045 5.85261 14.4021 5.10361 12.7901L2.53407 7.25996C0.860694 3.95506 3.26728 0 6.99998 0V0ZM3.32191 6.86838C3.32708 6.87849 3.20559 6.61736 5.90143 12.4193C6.3366 13.3558 7.66289 13.3566 8.09847 12.4193C10.7841 6.63925 10.6726 6.87899 10.6779 6.86843C12.0503 4.16868 10.1007 0.879782 6.99998 0.879782C3.901 0.879782 1.94871 4.16654 3.32191 6.86838Z" fill="white"/>
<path d="M6.99999 2.55872C8.34773 2.55872 9.44421 3.6552 9.44421 5.00294C9.44421 6.35069 8.34773 7.44717 6.99999 7.44717C5.65225 7.44717 4.55576 6.35069 4.55576 5.00294C4.55576 3.6552 5.65222 2.55872 6.99999 2.55872ZM6.99999 6.56742C7.86264 6.56742 8.56443 5.86563 8.56443 5.00297C8.56443 4.14032 7.86264 3.43853 6.99999 3.43853C6.13734 3.43853 5.43554 4.14032 5.43554 5.00297C5.43554 5.86563 6.13734 6.56742 6.99999 6.56742Z" fill="white"/>
</g>
<defs>
<clipPath id="clip0">
<rect width="14" height="14" fill="white" transform="matrix(-1 0 0 1 14 0)"/>
</clipPath>
</defs>
</svg>
