<svg width="160" height="241" viewBox="0 0 160 241" fill="none" xmlns="http://www.w3.org/2000/svg">
<rect width="160" height="140" fill="#E59F71"/>
<path d="M103 218.195V239.824H97.8047L69.5039 227.055V239.441H63.0234V218.605H68.2188L96.4922 231.375V218.195H103ZM103 195.445V213.465H63.0234V195.445H69.4492V206.027H78.9648V196.211H85.418V206.027H96.4922V195.445H103ZM82.6289 164.191C89.2279 164.191 94.2773 165.54 97.7773 168.238C101.259 170.918 103 174.783 103 179.832V189.621H63.0234V178.93C63.0234 174.281 64.7461 170.663 68.1914 168.074C71.6185 165.486 76.431 164.191 82.6289 164.191ZM82.8477 171.82C73.9154 171.82 69.4492 174.281 69.4492 179.203V182.184H96.4922V179.777C96.4922 177.061 95.362 175.056 93.1016 173.762C90.8229 172.467 87.4049 171.82 82.8477 171.82Z" fill="white"/>
<path d="M79.8242 103.387V91.1641H100.332C101.809 94.6276 102.547 98.3099 102.547 102.211C102.547 106.859 100.779 110.441 97.2422 112.957C93.7057 115.454 88.6107 116.703 81.957 116.703C75.5404 116.703 70.5182 115.272 66.8906 112.41C63.263 109.53 61.4492 105.51 61.4492 100.352C61.4492 97.1615 62.2695 94.1172 63.9102 91.2188L69.9805 93.5703C68.668 95.8307 68.0117 97.9453 68.0117 99.9141C68.0117 102.74 69.2786 104.982 71.8125 106.641C74.3281 108.281 77.7643 109.102 82.1211 109.102C86.6055 109.102 90.0417 108.509 92.4297 107.324C94.8177 106.121 96.0117 104.38 96.0117 102.102C96.0117 100.898 95.8568 99.6771 95.5469 98.4375H86.3867V103.387H79.8242ZM81.957 57.5586C88.5742 57.5586 93.6602 58.7982 97.2148 61.2773C100.77 63.7565 102.547 67.3021 102.547 71.9141C102.547 76.5443 100.779 80.099 97.2422 82.5781C93.6875 85.0573 88.5742 86.2969 81.9023 86.2969C75.2852 86.2969 70.2174 85.0573 66.6992 82.5781C63.1628 80.099 61.3945 76.526 61.3945 71.8594C61.3945 67.2474 63.1719 63.7109 66.7266 61.25C70.263 58.7891 75.3398 57.5586 81.957 57.5586ZM81.957 78.6953C86.5143 78.6953 89.987 78.1211 92.375 76.9727C94.763 75.8242 95.957 74.138 95.957 71.9141C95.957 67.4297 91.2904 65.1875 81.957 65.1875C72.6237 65.1875 67.957 67.4115 67.957 71.8594C67.957 74.1198 69.151 75.8242 71.5391 76.9727C73.9089 78.1211 77.3815 78.6953 81.957 78.6953ZM81.957 24.1992C88.5742 24.1992 93.6602 25.4388 97.2148 27.918C100.77 30.3971 102.547 33.9427 102.547 38.5547C102.547 43.1849 100.779 46.7396 97.2422 49.2188C93.6875 51.6979 88.5742 52.9375 81.9023 52.9375C75.2852 52.9375 70.2174 51.6979 66.6992 49.2188C63.1628 46.7396 61.3945 43.1667 61.3945 38.5C61.3945 33.888 63.1719 30.3516 66.7266 27.8906C70.263 25.4297 75.3398 24.1992 81.957 24.1992ZM81.957 45.3359C86.5143 45.3359 89.987 44.7617 92.375 43.6133C94.763 42.4648 95.957 40.7786 95.957 38.5547C95.957 34.0703 91.2904 31.8281 81.957 31.8281C72.6237 31.8281 67.957 34.0521 67.957 38.5C67.957 40.7604 69.151 42.4648 71.5391 43.6133C73.9089 44.7617 77.3815 45.3359 81.957 45.3359Z" fill="white"/>
<line x1="79.5" y1="130" x2="79.5" y2="150" stroke="white"/>
</svg>
