<svg width="30" height="30" viewBox="0 0 30 30" fill="none" xmlns="http://www.w3.org/2000/svg">
<g clip-path="url(#clip0)">
<path d="M7.33165 11.7058C7.44726 11.7058 7.56292 11.6951 7.67542 11.6742C8.47956 11.524 9.06321 10.8021 9.06321 9.95777C9.06321 8.36338 9.68642 6.79769 10.818 5.67445C11.8339 4.66594 13.1482 4.06969 14.5605 3.96715V2.0192C14.5605 1.77621 14.3974 1.55988 14.1636 1.49326L11.9498 0.862089C11.7165 0.795526 11.5812 0.552362 11.6477 0.318925C11.7143 0.0856043 11.9572 -0.0493957 12.1909 0.0168153L14.4046 0.648046C15.0139 0.821776 15.4394 1.38562 15.4394 2.0192V3.96809C18.5049 4.19695 20.9367 6.8042 20.9367 9.95777C20.9367 10.8021 21.5204 11.5239 22.3245 11.6742C22.437 11.6951 22.5527 11.7058 22.6683 11.7058C22.911 11.7058 23.1077 11.9025 23.1077 12.1453C23.1077 12.388 22.911 12.5847 22.6683 12.5847H21.8156L20.215 27.4854C20.5328 27.6558 20.7495 27.9908 20.7495 28.3755C20.7495 29.2712 20.0192 30 19.1215 30H10.8779C9.98027 30 9.24995 29.2712 9.24995 28.3755C9.24995 27.9906 9.46692 27.6555 9.78503 27.4852L8.18431 12.5847H7.33165C7.0889 12.5847 6.8922 12.388 6.8922 12.1453C6.8922 11.9025 7.08896 11.7058 7.33165 11.7058ZM14.5605 4.84969C13.3839 4.95076 12.2868 5.45484 11.4371 6.29824C10.8465 6.88453 10.4194 7.59053 10.1763 8.36162C10.422 8.25357 10.6993 8.19586 11.0011 8.19586C11.4333 8.19586 11.8402 8.33519 12.1711 8.58533C12.6472 7.9026 13.5353 7.42148 14.5605 7.31326V4.84969ZM15.4394 4.84963V7.31326C16.4646 7.42148 17.3528 7.90266 17.8288 8.58539C18.1597 8.33519 18.5667 8.19586 18.9989 8.19586C19.2949 8.19586 19.5618 8.24308 19.7968 8.33496C19.1688 6.43898 17.4728 5.02851 15.4394 4.84963ZM20.059 10.0066C19.9381 9.36299 19.6105 9.07477 18.999 9.07477C18.624 9.07477 18.2836 9.26642 18.0885 9.58734C17.9968 9.73822 17.8233 9.81961 17.649 9.79377C17.4743 9.76805 17.332 9.64025 17.2876 9.46933C17.0953 8.72801 16.1119 8.16896 15.0001 8.16896C13.8882 8.16896 12.9047 8.72801 12.7124 9.46928C12.6681 9.64019 12.5258 9.76799 12.3511 9.79371C12.1765 9.81937 12.0033 9.73822 11.9116 9.58728C11.7164 9.26631 11.376 9.07477 11.0011 9.07477C10.2374 9.07477 10.0091 9.64295 9.94112 10.0028C9.93034 10.651 9.68876 11.2492 9.28945 11.7058H20.7105C20.312 11.2501 20.0706 10.6533 20.059 10.0066ZM10.8779 29.1211H19.1216C19.5346 29.1211 19.8707 28.7866 19.8707 28.3755C19.8707 28.313 19.8162 28.2447 19.7541 28.2447H13.8818C13.6391 28.2447 13.4424 28.048 13.4424 27.8053C13.4424 27.5625 13.6391 27.3658 13.8818 27.3658H19.3439L19.6833 24.2067H10.3168L10.6561 27.3658H11.8257C12.0685 27.3658 12.2652 27.5625 12.2652 27.8053C12.2652 28.048 12.0685 28.2447 11.8257 28.2447H10.2644H10.2623H10.2614C10.1883 28.2447 10.1289 28.3034 10.1289 28.3755C10.1289 28.7866 10.4649 29.1211 10.8779 29.1211ZM9.41366 15.7999H16.5859C16.8287 15.7999 17.0254 15.9966 17.0254 16.2393C17.0254 16.4821 16.8287 16.6788 16.5859 16.6788H9.50806L10.2223 23.3278H19.7777L20.4919 16.6788H18.6174C18.3746 16.6788 18.1779 16.4821 18.1779 16.2393C18.1779 15.9966 18.3746 15.7999 18.6174 15.7999H20.5863L20.9317 12.5847H9.0682L9.41366 15.7999Z" fill="white"/>
<path d="M17.222 19.5423H12.778C12.5352 19.5423 12.3386 19.3456 12.3386 19.1028C12.3386 18.8601 12.5352 18.6634 12.778 18.6634H17.222C17.4647 18.6634 17.6614 18.8601 17.6614 19.1028C17.6614 19.3456 17.4647 19.5423 17.222 19.5423Z" fill="white"/>
<path d="M13.6837 20.4126H16.3698C16.6126 20.4126 16.8093 20.6093 16.8093 20.8521C16.8093 21.0948 16.6126 21.2915 16.3698 21.2915H13.6837C13.4409 21.2915 13.2442 21.0948 13.2442 20.8521C13.2442 20.6093 13.4409 20.4126 13.6837 20.4126Z" fill="white"/>
</g>
<defs>
<clipPath id="clip0">
<rect width="30" height="30" fill="white" transform="matrix(-1 0 0 1 30 0)"/>
</clipPath>
</defs>
</svg>
