<svg width="13" height="15" viewBox="0 0 13 15" fill="none" xmlns="http://www.w3.org/2000/svg">
<path d="M8.66684 5.45452H0V6.81799H8.66684C10.1603 6.81799 11.375 5.28831 11.375 3.40899C11.375 1.52907 10.1598 0 8.66684 0C7.1734 0 5.95868 1.52968 5.95868 3.40899H7.04184C7.04184 2.2814 7.77106 1.36347 8.66684 1.36347C9.56262 1.36347 10.2918 2.2814 10.2918 3.40899C10.2918 4.53659 9.56262 5.45452 8.66684 5.45452Z" fill="#E59F71"/>
<path d="M10.2918 8.18201H0V9.54547H10.2918C11.1876 9.54547 11.9168 10.4634 11.9168 11.591C11.9168 12.7186 11.1876 13.6365 10.2918 13.6365C9.39606 13.6365 8.66684 12.7186 8.66684 11.591H7.58368C7.58368 13.4709 8.79888 15 10.2918 15C11.7853 15 13 13.4703 13 11.591C13 9.71108 11.7848 8.18201 10.2918 8.18201Z" fill="#E59F71"/>
</svg>
