<svg width="14" height="18" viewBox="0 0 14 18" fill="none" xmlns="http://www.w3.org/2000/svg">
<path d="M4.18715 11.2862C3.1751 11.2862 2.35168 10.4628 2.35168 9.45076C2.35168 9.23561 2.52699 9.0603 2.74214 9.0603C2.95729 9.0603 3.1326 9.23562 3.1326 9.45076C3.1326 10.0325 3.60673 10.5066 4.18848 10.5066C4.77022 10.5066 5.24436 10.0325 5.24436 9.45076C5.24436 9.23561 5.41967 9.0603 5.63482 9.0603C5.84997 9.0603 6.02528 9.23562 6.02528 9.45076C6.02262 10.4628 5.19917 11.2862 4.18715 11.2862Z" fill="#E59F71" stroke="#E59F71" stroke-width="0.5"/>
<path d="M7.07854 11.2862C6.06648 11.2862 5.24306 10.4628 5.24306 9.45076C5.24306 9.23561 5.41838 9.0603 5.63352 9.0603C5.84867 9.0603 6.02398 9.23562 6.02398 9.45076C6.02398 10.0325 6.49812 10.5066 7.07986 10.5066C7.66158 10.5066 8.13575 10.0325 8.13575 9.45076C8.13575 9.23561 8.31106 9.0603 8.52621 9.0603C8.74136 9.0603 8.91666 9.23562 8.91666 9.45076C8.91401 10.4628 8.09056 11.2862 7.07854 11.2862Z" fill="#E59F71" stroke="#E59F71" stroke-width="0.5"/>
<path d="M9.96993 11.2862C8.95787 11.2862 8.13445 10.4628 8.13445 9.45076C8.13445 9.23561 8.30977 9.0603 8.52491 9.0603C8.74007 9.0603 8.91537 9.23562 8.91537 9.45076C8.91537 10.0325 9.38951 10.5066 9.97125 10.5066C10.553 10.5066 11.0271 10.0325 11.0271 9.45076C11.0271 9.23561 11.2024 9.0603 11.4176 9.0603C11.6328 9.0603 11.8081 9.23562 11.8081 9.45076C11.8054 10.4628 10.9819 11.2862 9.96993 11.2862Z" fill="#E59F71" stroke="#E59F71" stroke-width="0.5"/>
<path fill-rule="evenodd" clip-rule="evenodd" d="M0.905441 10.8268C0.905441 14.2308 3.67443 16.9999 7.07854 16.9999L7.07871 17C10.4827 17 13.2518 14.231 13.2532 10.8269C13.2532 6.18111 7.57952 1.12081 7.33779 0.906981C7.19567 0.780809 6.98184 0.776824 6.83442 0.896356C6.59132 1.09152 0.905441 5.74276 0.905441 10.8268ZM7.06774 1.72102C7.0678 1.72097 7.06786 1.72092 7.06792 1.72086H7.06758C7.06763 1.72092 7.06769 1.72097 7.06774 1.72102ZM7.06774 1.72102C5.96643 2.68683 1.68499 6.70145 1.68499 10.8265C1.68499 13.8002 4.10353 16.2186 7.0771 16.2186C10.0507 16.2186 12.4692 13.8001 12.4692 10.8265C12.4705 7.0574 8.15976 2.75048 7.06774 1.72102Z" fill="#E59F71"/>
<path d="M7.07854 16.9999L7.19135 16.7768L7.13815 16.7499H7.07854V16.9999ZM7.07871 17L6.96591 17.2231L7.0191 17.25H7.07871V17ZM13.2532 10.8269L13.5032 10.827V10.8269H13.2532ZM7.33779 0.906981L7.17182 1.09394L7.17215 1.09423L7.33779 0.906981ZM6.83442 0.896356L6.99093 1.09131L6.99187 1.09054L6.83442 0.896356ZM7.06792 1.72086L7.23276 1.90882L7.73212 1.47086H7.06792V1.72086ZM7.06758 1.72086V1.47086H6.43966L6.89575 1.90245L7.06758 1.72086ZM12.4692 10.8265L12.2192 10.8264V10.8265H12.4692ZM7.07854 16.7499C3.8125 16.7499 1.15544 14.0927 1.15544 10.8268H0.655441C0.655441 14.3688 3.53635 17.2499 7.07854 17.2499V16.7499ZM7.19152 16.7769L7.19135 16.7768L6.96574 17.223L6.96591 17.2231L7.19152 16.7769ZM13.0032 10.8268C13.0019 14.093 10.3446 16.75 7.07871 16.75V17.25C10.6208 17.25 13.5018 14.3691 13.5032 10.827L13.0032 10.8268ZM7.17215 1.09423C7.28777 1.19651 8.75352 2.50318 10.1884 4.35793C11.6315 6.22332 13.0032 8.59255 13.0032 10.8269H13.5032C13.5032 8.41548 12.038 5.93166 10.5839 4.05199C9.12148 2.16168 7.62954 0.831281 7.50344 0.719732L7.17215 1.09423ZM6.99187 1.09054C7.04492 1.04753 7.12186 1.04958 7.17182 1.09394L7.50377 0.720025C7.26949 0.512036 6.91876 0.506117 6.67697 0.702167L6.99187 1.09054ZM1.15544 10.8268C1.15544 8.37137 2.53286 5.99367 3.97431 4.18401C5.41021 2.38134 6.87691 1.18284 6.99093 1.09131L6.67791 0.701405C6.54883 0.805036 5.05104 2.02974 3.58322 3.87249C2.12096 5.70827 0.655441 8.19823 0.655441 10.8268H1.15544ZM6.90308 1.53291C6.90308 1.53291 6.90308 1.53291 6.90308 1.53291C6.90308 1.53291 6.90308 1.53291 6.90308 1.53291C6.90308 1.53291 6.90308 1.53291 6.90308 1.53291C6.90308 1.53291 6.90308 1.53291 6.90308 1.53291C6.90307 1.53291 6.90307 1.53291 6.90307 1.53291C6.90307 1.53291 6.90307 1.53291 6.90307 1.53291C6.90307 1.53291 6.90307 1.53291 6.90307 1.53291C6.90307 1.53291 6.90307 1.53291 6.90307 1.53291C6.90307 1.53291 6.90307 1.53291 6.90307 1.53291C6.90307 1.53291 6.90307 1.53291 6.90307 1.53291C6.90307 1.53291 6.90307 1.53291 6.90307 1.53291C6.90307 1.53291 6.90307 1.53291 6.90307 1.53291C6.90307 1.53291 6.90307 1.53291 6.90307 1.53291C6.90307 1.53291 6.90307 1.53291 6.90307 1.53291C6.90307 1.53291 6.90307 1.53291 6.90307 1.53291C6.90307 1.53291 6.90307 1.53291 6.90307 1.53291C6.90307 1.53291 6.90307 1.53291 6.90307 1.53291C6.90307 1.53291 6.90307 1.53291 6.90307 1.53291C6.90307 1.53291 6.90307 1.53291 6.90307 1.53291C6.90307 1.53291 6.90307 1.53292 6.90307 1.53292C6.90307 1.53292 6.90307 1.53292 6.90307 1.53292C6.90307 1.53292 6.90307 1.53292 6.90307 1.53292C6.90307 1.53292 6.90307 1.53292 6.90307 1.53292C6.90307 1.53292 6.90307 1.53292 6.90307 1.53292C6.90307 1.53292 6.90307 1.53292 6.90307 1.53292C6.90307 1.53292 6.90307 1.53292 6.90307 1.53292C6.90307 1.53292 6.90307 1.53292 6.90307 1.53292C6.90307 1.53292 6.90307 1.53292 6.90307 1.53292C6.90307 1.53292 6.90307 1.53292 6.90307 1.53292C6.90307 1.53292 6.90307 1.53292 6.90307 1.53292C6.90307 1.53292 6.90307 1.53292 6.90307 1.53292C6.90307 1.53292 6.90307 1.53292 6.90307 1.53292C6.90307 1.53292 6.90307 1.53292 6.90307 1.53292C6.90306 1.53292 6.90306 1.53292 6.90306 1.53292C6.90306 1.53292 6.90306 1.53292 6.90306 1.53292C6.90306 1.53292 6.90306 1.53292 6.90306 1.53292C6.90306 1.53292 6.90306 1.53292 6.90306 1.53292C6.90306 1.53292 6.90306 1.53292 6.90306 1.53292C6.90306 1.53292 6.90306 1.53292 6.90306 1.53292C6.90306 1.53292 6.90306 1.53292 6.90306 1.53292C6.90306 1.53292 6.90306 1.53292 6.90306 1.53292C6.90306 1.53292 6.90306 1.53292 6.90306 1.53292C6.90306 1.53292 6.90306 1.53292 6.90306 1.53292C6.90306 1.53292 6.90306 1.53292 6.90306 1.53292C6.90306 1.53292 6.90306 1.53292 6.90306 1.53292C6.90306 1.53292 6.90306 1.53292 6.90306 1.53292C6.90306 1.53292 6.90306 1.53292 6.90306 1.53292C6.90306 1.53292 6.90306 1.53292 6.90306 1.53292C6.90306 1.53292 6.90306 1.53292 6.90306 1.53292C6.90306 1.53292 6.90306 1.53292 6.90306 1.53292C6.90306 1.53292 6.90306 1.53292 6.90306 1.53292C6.90306 1.53292 6.90306 1.53292 6.90306 1.53292C6.90306 1.53292 6.90306 1.53293 6.90306 1.53293C6.90306 1.53293 6.90306 1.53293 6.90306 1.53293C6.90306 1.53293 6.90306 1.53293 6.90306 1.53293C6.90306 1.53293 6.90306 1.53293 6.90306 1.53293C6.90306 1.53293 6.90306 1.53293 6.90306 1.53293C6.90306 1.53293 6.90306 1.53293 6.90306 1.53293C6.90306 1.53293 6.90306 1.53293 6.90306 1.53293C6.90306 1.53293 6.90306 1.53293 6.90306 1.53293C6.90306 1.53293 6.90306 1.53293 6.90306 1.53293C6.90306 1.53293 6.90306 1.53293 6.90306 1.53293C6.90305 1.53293 6.90305 1.53293 6.90305 1.53293C6.90305 1.53293 6.90305 1.53293 6.90305 1.53293C6.90305 1.53293 6.90305 1.53293 6.90305 1.53293C6.90305 1.53293 6.90305 1.53293 6.90305 1.53293C6.90305 1.53293 6.90305 1.53293 6.90305 1.53293C6.90305 1.53293 6.90305 1.53293 6.90305 1.53293C6.90305 1.53293 6.90305 1.53293 6.90305 1.53293C6.90305 1.53293 6.90305 1.53293 6.90305 1.53293C6.90305 1.53293 6.90305 1.53293 6.90305 1.53293C6.90305 1.53293 6.90305 1.53293 6.90305 1.53293C6.90305 1.53293 6.90305 1.53293 6.90305 1.53293C6.90305 1.53293 6.90305 1.53293 6.90305 1.53293C6.90305 1.53293 6.90305 1.53293 6.90305 1.53293C6.90305 1.53293 6.90305 1.53293 6.90305 1.53293C6.90305 1.53293 6.90305 1.53293 6.90305 1.53293C6.90305 1.53293 6.90305 1.53293 6.90305 1.53293C6.90305 1.53293 6.90305 1.53293 6.90305 1.53293C6.90305 1.53293 6.90305 1.53293 6.90305 1.53293C6.90305 1.53293 6.90305 1.53293 6.90305 1.53293C6.90305 1.53293 6.90305 1.53293 6.90305 1.53293C6.90305 1.53293 6.90305 1.53293 6.90305 1.53293C6.90305 1.53293 6.90305 1.53293 6.90305 1.53293C6.90305 1.53293 6.90305 1.53293 6.90305 1.53293C6.90305 1.53293 6.90305 1.53293 6.90305 1.53294C6.90305 1.53294 6.90305 1.53294 6.90305 1.53294C6.90305 1.53294 6.90305 1.53294 6.90305 1.53294C6.90305 1.53294 6.90305 1.53294 6.90305 1.53294C6.90305 1.53294 6.90305 1.53294 6.90305 1.53294C6.90305 1.53294 6.90305 1.53294 6.90305 1.53294C6.90305 1.53294 6.90304 1.53294 6.90304 1.53294C6.90304 1.53294 6.90304 1.53294 6.90304 1.53294C6.90304 1.53294 6.90304 1.53294 6.90304 1.53294C6.90304 1.53294 6.90304 1.53294 6.90304 1.53294C6.90304 1.53294 6.90304 1.53294 6.90304 1.53294C6.90304 1.53294 6.90304 1.53294 6.90304 1.53294C6.90304 1.53294 6.90304 1.53294 6.90304 1.53294C6.90304 1.53294 6.90304 1.53294 6.90304 1.53294C6.90304 1.53294 6.90304 1.53294 6.90304 1.53294C6.90304 1.53294 6.90304 1.53294 6.90304 1.53294C6.90304 1.53294 6.90304 1.53294 6.90304 1.53294C6.90304 1.53294 6.90304 1.53294 6.90304 1.53294C6.90304 1.53294 6.90304 1.53294 6.90304 1.53294C6.90304 1.53294 6.90304 1.53294 6.90304 1.53294C6.90304 1.53294 6.90304 1.53294 6.90304 1.53294C6.90304 1.53294 6.90304 1.53294 6.90304 1.53294C6.90304 1.53294 6.90304 1.53294 6.90304 1.53294C6.90304 1.53294 6.90304 1.53294 6.90304 1.53294C6.90304 1.53294 6.90304 1.53294 6.90304 1.53294C6.90304 1.53294 6.90304 1.53294 6.90304 1.53294C6.90304 1.53294 6.90304 1.53294 6.90304 1.53294C6.90304 1.53294 6.90304 1.53294 6.90304 1.53294C6.90304 1.53294 6.90304 1.53294 6.90304 1.53294C6.90304 1.53294 6.90304 1.53294 6.90304 1.53294C6.90304 1.53294 6.90304 1.53294 6.90304 1.53294C6.90304 1.53294 6.90304 1.53294 6.90304 1.53294C6.90304 1.53294 6.90304 1.53294 6.90304 1.53294C6.90304 1.53294 6.90304 1.53294 6.90304 1.53295C6.90304 1.53295 6.90304 1.53295 6.90304 1.53295C6.90304 1.53295 6.90303 1.53295 6.90303 1.53295C6.90303 1.53295 6.90303 1.53295 6.90303 1.53295C6.90303 1.53295 6.90303 1.53295 6.90303 1.53295C6.90303 1.53295 6.90303 1.53295 6.90303 1.53295C6.90303 1.53295 6.90303 1.53295 6.90303 1.53295C6.90303 1.53295 6.90303 1.53295 6.90303 1.53295C6.90303 1.53295 6.90303 1.53295 6.90303 1.53295C6.90303 1.53295 6.90303 1.53295 6.90303 1.53295C6.90303 1.53295 6.90303 1.53295 6.90303 1.53295C6.90303 1.53295 6.90303 1.53295 6.90303 1.53295C6.90303 1.53295 6.90303 1.53295 6.90303 1.53295C6.90303 1.53295 6.90303 1.53295 6.90303 1.53295C6.90303 1.53295 6.90303 1.53295 6.90303 1.53295C6.90303 1.53295 6.90303 1.53295 6.90303 1.53295C6.90303 1.53295 6.90303 1.53295 6.90303 1.53295C6.90303 1.53295 6.90303 1.53295 6.90303 1.53295C6.90303 1.53295 6.90303 1.53295 6.90303 1.53295C6.90303 1.53295 6.90303 1.53295 6.90303 1.53295C6.90303 1.53295 6.90303 1.53295 6.90303 1.53295C6.90303 1.53295 6.90303 1.53295 6.90303 1.53295C6.90303 1.53295 6.90303 1.53295 6.90303 1.53295C6.90303 1.53295 6.90303 1.53295 6.90303 1.53295C6.90303 1.53295 6.90303 1.53295 6.90303 1.53295C6.90303 1.53295 6.90303 1.53295 6.90303 1.53295C6.90303 1.53295 6.90303 1.53295 6.90303 1.53295C6.90303 1.53295 6.90303 1.53295 6.90303 1.53295C6.90303 1.53295 6.90303 1.53295 6.90303 1.53295C6.90303 1.53295 6.90303 1.53295 6.90303 1.53295C6.90303 1.53295 6.90303 1.53295 6.90303 1.53295C6.90303 1.53295 6.90303 1.53295 6.90302 1.53295C6.90302 1.53295 6.90302 1.53295 6.90302 1.53295C6.90302 1.53295 6.90302 1.53295 6.90302 1.53295C6.90302 1.53296 6.90302 1.53296 6.90302 1.53296C6.90302 1.53296 6.90302 1.53296 6.90302 1.53296C6.90302 1.53296 6.90302 1.53296 6.90302 1.53296C6.90302 1.53296 6.90302 1.53296 6.90302 1.53296C6.90302 1.53296 6.90302 1.53296 6.90302 1.53296C6.90302 1.53296 6.90302 1.53296 6.90302 1.53296C6.90302 1.53296 6.90302 1.53296 6.90302 1.53296C6.90302 1.53296 6.90302 1.53296 6.90302 1.53296C6.90302 1.53296 6.90302 1.53296 6.90302 1.53296C6.90302 1.53296 6.90302 1.53296 6.90302 1.53296C6.90302 1.53296 6.90302 1.53296 6.90302 1.53296C6.90302 1.53296 6.90302 1.53296 6.90302 1.53296C6.90302 1.53296 6.90302 1.53296 6.90302 1.53296C6.90302 1.53296 6.90302 1.53296 6.90302 1.53296C6.90302 1.53296 6.90302 1.53296 6.90302 1.53296C6.90302 1.53296 6.90302 1.53296 6.90302 1.53296C6.90302 1.53296 6.90302 1.53296 6.90302 1.53296C6.90302 1.53296 6.90302 1.53296 6.90302 1.53296C6.90302 1.53296 6.90302 1.53296 6.90302 1.53296C6.90302 1.53296 6.90302 1.53296 6.90302 1.53296C6.90302 1.53296 6.90302 1.53296 6.90302 1.53296C6.90302 1.53296 6.90302 1.53296 6.90302 1.53296C6.90302 1.53296 6.90302 1.53296 6.90302 1.53296C6.90302 1.53296 6.90302 1.53296 6.90302 1.53296C6.90302 1.53296 6.90302 1.53296 6.90302 1.53296C6.90302 1.53296 6.90302 1.53296 6.90302 1.53296C6.90302 1.53296 6.90302 1.53296 6.90301 1.53296C6.90301 1.53296 6.90301 1.53296 6.90301 1.53296C6.90301 1.53296 6.90301 1.53296 6.90301 1.53296C6.90301 1.53296 6.90301 1.53296 6.90301 1.53296C6.90301 1.53296 6.90301 1.53296 6.90301 1.53296C6.90301 1.53296 6.90301 1.53296 6.90301 1.53296C6.90301 1.53296 6.90301 1.53296 6.90301 1.53296C6.90301 1.53297 6.90301 1.53297 6.90301 1.53297C6.90301 1.53297 6.90301 1.53297 6.90301 1.53297C6.90301 1.53297 6.90301 1.53297 6.90301 1.53297C6.90301 1.53297 6.90301 1.53297 6.90301 1.53297C6.90301 1.53297 6.90301 1.53297 6.90301 1.53297C6.90301 1.53297 6.90301 1.53297 6.90301 1.53297C6.90301 1.53297 6.90301 1.53297 6.90301 1.53297C6.90301 1.53297 6.90301 1.53297 6.90301 1.53297C6.90301 1.53297 6.90301 1.53297 6.90301 1.53297C6.90301 1.53297 6.90301 1.53297 6.90301 1.53297C6.90301 1.53297 6.90301 1.53297 6.90301 1.53297C6.90301 1.53297 6.90301 1.53297 6.90301 1.53297C6.90301 1.53297 6.90301 1.53297 6.90301 1.53297C6.90301 1.53297 6.90301 1.53297 6.90301 1.53297C6.90301 1.53297 6.90301 1.53297 6.90301 1.53297C6.90301 1.53297 6.90301 1.53297 6.90301 1.53297C6.90301 1.53297 6.90301 1.53297 6.90301 1.53297C6.90301 1.53297 6.90301 1.53297 6.90301 1.53297C6.90301 1.53297 6.90301 1.53297 6.90301 1.53297C6.90301 1.53297 6.90301 1.53297 6.90301 1.53297C6.90301 1.53297 6.90301 1.53297 6.90301 1.53297C6.90301 1.53297 6.90301 1.53297 6.90301 1.53297C6.90301 1.53297 6.90301 1.53297 6.90301 1.53297C6.903 1.53297 6.903 1.53297 6.903 1.53297C6.903 1.53297 6.903 1.53297 6.903 1.53297C6.903 1.53297 6.903 1.53297 6.903 1.53297C6.903 1.53297 6.903 1.53297 6.903 1.53297C6.903 1.53297 6.903 1.53297 6.903 1.53297C6.903 1.53297 6.903 1.53297 6.903 1.53297C6.903 1.53297 6.903 1.53297 6.903 1.53297C6.903 1.53297 6.903 1.53297 6.903 1.53297C6.903 1.53297 6.903 1.53297 6.903 1.53297C6.903 1.53297 6.903 1.53297 6.903 1.53297C6.903 1.53297 6.903 1.53298 6.903 1.53298C6.903 1.53298 6.903 1.53298 6.903 1.53298C6.903 1.53298 6.903 1.53298 6.903 1.53298C6.903 1.53298 6.903 1.53298 6.903 1.53298C6.903 1.53298 6.903 1.53298 6.903 1.53298C6.903 1.53298 6.903 1.53298 6.903 1.53298C6.903 1.53298 6.903 1.53298 6.903 1.53298C6.903 1.53298 6.903 1.53298 6.903 1.53298C6.903 1.53298 6.903 1.53298 6.903 1.53298C6.903 1.53298 6.903 1.53298 6.903 1.53298C6.903 1.53298 6.903 1.53298 6.903 1.53298C6.903 1.53298 6.903 1.53298 6.903 1.53298C6.903 1.53298 6.903 1.53298 6.903 1.53298C6.903 1.53298 6.903 1.53298 6.903 1.53298C6.903 1.53298 6.903 1.53298 6.903 1.53298C6.903 1.53298 6.903 1.53298 6.903 1.53298C6.903 1.53298 6.903 1.53298 6.903 1.53298C6.903 1.53298 6.903 1.53298 6.903 1.53298C6.903 1.53298 6.903 1.53298 6.903 1.53298C6.90299 1.53298 6.90299 1.53298 6.90299 1.53298C6.90299 1.53298 6.90299 1.53298 6.90299 1.53298C6.90299 1.53298 6.90299 1.53298 6.90299 1.53298C6.90299 1.53298 6.90299 1.53298 6.90299 1.53298C6.90299 1.53298 6.90299 1.53298 6.90299 1.53298C6.90299 1.53298 6.90299 1.53298 6.90299 1.53298C6.90299 1.53298 6.90299 1.53298 6.90299 1.53298C6.90299 1.53298 6.90299 1.53298 6.90299 1.53298C6.90299 1.53298 6.90299 1.53298 6.90299 1.53298C6.90299 1.53298 6.90299 1.53298 6.90299 1.53298C6.90299 1.53298 6.90299 1.53298 6.90299 1.53298C6.90299 1.53298 6.90299 1.53298 6.90299 1.53298C6.90299 1.53298 6.90299 1.53298 6.90299 1.53298C6.90299 1.53298 6.90299 1.53298 6.90299 1.53298C6.90299 1.53298 6.90299 1.53299 6.90299 1.53299C6.90299 1.53299 6.90299 1.53299 6.90299 1.53299C6.90299 1.53299 6.90299 1.53299 6.90299 1.53299C6.90299 1.53299 6.90299 1.53299 6.90299 1.53299C6.90299 1.53299 6.90299 1.53299 6.90299 1.53299C6.90299 1.53299 6.90299 1.53299 6.90299 1.53299C6.90299 1.53299 6.90299 1.53299 6.90299 1.53299C6.90299 1.53299 6.90299 1.53299 6.90299 1.53299C6.90299 1.53299 6.90299 1.53299 6.90299 1.53299C6.90299 1.53299 6.90299 1.53299 6.90299 1.53299C6.90299 1.53299 6.90299 1.53299 6.90299 1.53299C6.90299 1.53299 6.90299 1.53299 6.90299 1.53299C6.90299 1.53299 6.90299 1.53299 6.90299 1.53299C6.90299 1.53299 6.90299 1.53299 6.90299 1.53299C6.90299 1.53299 6.90299 1.53299 6.90299 1.53299C6.90298 1.53299 6.90298 1.53299 6.90298 1.53299C6.90298 1.53299 6.90298 1.53299 6.90298 1.53299C6.90298 1.53299 6.90298 1.53299 6.90298 1.53299C6.90298 1.53299 6.90298 1.53299 6.90298 1.53299C6.90298 1.53299 6.90298 1.53299 6.90298 1.53299C6.90298 1.53299 6.90298 1.53299 6.90298 1.53299C6.90298 1.53299 6.90298 1.53299 6.90298 1.53299C6.90298 1.53299 6.90298 1.53299 6.90298 1.53299C6.90298 1.53299 6.90298 1.53299 6.90298 1.53299C6.90298 1.53299 6.90298 1.53299 6.90298 1.53299C6.90298 1.53299 6.90298 1.53299 6.90298 1.53299C6.90298 1.53299 6.90298 1.53299 6.90298 1.53299C6.90298 1.53299 6.90298 1.53299 6.90298 1.53299C6.90298 1.53299 6.90298 1.53299 6.90298 1.53299C6.90298 1.53299 6.90298 1.53299 6.90298 1.53299C6.90298 1.53299 6.90298 1.53299 6.90298 1.53299C6.90298 1.53299 6.90298 1.53299 6.90298 1.53299C6.90298 1.53299 6.90298 1.53299 6.90298 1.53299C6.90298 1.53299 6.90298 1.53299 6.90298 1.533C6.90298 1.533 6.90298 1.533 6.90298 1.533C6.90298 1.533 6.90298 1.533 6.90298 1.533C6.90298 1.533 6.90298 1.533 6.90298 1.533C6.90298 1.533 6.90298 1.533 6.90298 1.533C6.90298 1.533 6.90298 1.533 6.90298 1.533C6.90298 1.533 6.90298 1.533 6.90298 1.533C6.90298 1.533 6.90298 1.533 6.90298 1.533C6.90298 1.533 6.90298 1.533 6.90298 1.533C6.90298 1.533 6.90298 1.533 6.90298 1.533C6.90298 1.533 6.90298 1.533 6.90298 1.533C6.90298 1.533 6.90297 1.533 6.90297 1.533C6.90297 1.533 6.90297 1.533 6.90297 1.533C6.90297 1.533 6.90297 1.533 6.90297 1.533C6.90297 1.533 6.90297 1.533 6.90297 1.533C6.90297 1.533 6.90297 1.533 6.90297 1.533C6.90297 1.533 6.90297 1.533 6.90297 1.533C6.90297 1.533 6.90297 1.533 6.90297 1.533C6.90297 1.533 6.90297 1.533 6.90297 1.533C6.90297 1.533 6.90297 1.533 6.90297 1.533C6.90297 1.533 6.90297 1.533 6.90297 1.533C6.90297 1.533 6.90297 1.533 6.90297 1.533C6.90297 1.533 6.90297 1.533 6.90297 1.533C6.90297 1.533 6.90297 1.533 6.90297 1.533C6.90297 1.533 6.90297 1.533 6.90297 1.533C6.90297 1.533 6.90297 1.533 6.90297 1.533C6.90297 1.533 6.90297 1.533 6.90297 1.533C6.90297 1.533 6.90297 1.533 6.90297 1.533C6.90297 1.533 6.90297 1.533 6.90297 1.533C6.90297 1.533 6.90297 1.533 6.90297 1.533C6.90297 1.533 6.90297 1.533 6.90297 1.533C6.90297 1.533 6.90297 1.533 6.90297 1.533C6.90297 1.533 6.90297 1.533 6.90297 1.533C6.90297 1.533 6.90297 1.533 6.90297 1.533C6.90297 1.53301 6.90297 1.53301 6.90297 1.53301C6.90297 1.53301 6.90297 1.53301 6.90297 1.53301C6.90297 1.53301 6.90297 1.53301 6.90297 1.53301C6.90297 1.53301 6.90297 1.53301 6.90297 1.53301C6.90297 1.53301 6.90297 1.53301 6.90297 1.53301C6.90297 1.53301 6.90297 1.53301 6.90297 1.53301C6.90297 1.53301 6.90296 1.53301 6.90296 1.53301C6.90296 1.53301 6.90296 1.53301 6.90296 1.53301C6.90296 1.53301 6.90296 1.53301 6.90296 1.53301C6.90296 1.53301 6.90296 1.53301 6.90296 1.53301C6.90296 1.53301 6.90296 1.53301 6.90296 1.53301C6.90296 1.53301 6.90296 1.53301 6.90296 1.53301C6.90296 1.53301 6.90296 1.53301 6.90296 1.53301C6.90296 1.53301 6.90296 1.53301 6.90296 1.53301C6.90296 1.53301 6.90296 1.53301 6.90296 1.53301C6.90296 1.53301 6.90296 1.53301 6.90296 1.53301C6.90296 1.53301 6.90296 1.53301 6.90296 1.53301C6.90296 1.53301 6.90296 1.53301 6.90296 1.53301C6.90296 1.53301 6.90296 1.53301 6.90296 1.53301C6.90296 1.53301 6.90296 1.53301 6.90296 1.53301C6.90296 1.53301 6.90296 1.53301 6.90296 1.53301C6.90296 1.53301 6.90296 1.53301 6.90296 1.53301C6.90296 1.53301 6.90296 1.53301 6.90296 1.53301C6.90296 1.53301 6.90296 1.53301 6.90296 1.53301C6.90296 1.53301 6.90296 1.53301 6.90296 1.53301C6.90296 1.53301 6.90296 1.53301 6.90296 1.53301C6.90296 1.53301 6.90296 1.53301 6.90296 1.53301C6.90296 1.53301 6.90296 1.53301 6.90296 1.53301C6.90296 1.53301 6.90296 1.53301 6.90296 1.53301C6.90296 1.53301 6.90296 1.53301 6.90296 1.53301C6.90296 1.53301 6.90296 1.53301 6.90296 1.53301C6.90296 1.53301 6.90296 1.53301 6.90296 1.53301C6.90296 1.53301 6.90296 1.53301 6.90296 1.53301C6.90296 1.53302 6.90296 1.53302 6.90296 1.53302C6.90296 1.53302 6.90296 1.53302 6.90296 1.53302C6.90296 1.53302 6.90296 1.53302 6.90295 1.53302C6.90295 1.53302 6.90295 1.53302 6.90295 1.53302C6.90295 1.53302 6.90295 1.53302 6.90295 1.53302C6.90295 1.53302 6.90295 1.53302 6.90295 1.53302C6.90295 1.53302 6.90295 1.53302 6.90295 1.53302C6.90295 1.53302 6.90295 1.53302 6.90295 1.53302C6.90295 1.53302 6.90295 1.53302 6.90295 1.53302C6.90295 1.53302 6.90295 1.53302 6.90295 1.53302C6.90295 1.53302 6.90295 1.53302 6.90295 1.53302C6.90295 1.53302 6.90295 1.53302 6.90295 1.53302C6.90295 1.53302 6.90295 1.53302 6.90295 1.53302C6.90295 1.53302 6.90295 1.53302 6.90295 1.53302C6.90295 1.53302 6.90295 1.53302 6.90295 1.53302C6.90295 1.53302 6.90295 1.53302 6.90295 1.53302C6.90295 1.53302 6.90295 1.53302 6.90295 1.53302C6.90295 1.53302 6.90295 1.53302 6.90295 1.53302C6.90295 1.53302 6.90295 1.53302 6.90295 1.53302C6.90295 1.53302 6.90295 1.53302 6.90295 1.53302C6.90295 1.53302 6.90295 1.53302 6.90295 1.53302C6.90295 1.53302 6.90295 1.53302 6.90295 1.53302C6.90295 1.53302 6.90295 1.53302 6.90295 1.53302C6.90295 1.53302 6.90295 1.53302 6.90295 1.53302C6.90295 1.53302 6.90295 1.53302 6.90295 1.53302C6.90295 1.53302 6.90295 1.53302 6.90295 1.53302C6.90295 1.53302 6.90295 1.53302 6.90295 1.53302C6.90295 1.53302 6.90295 1.53302 6.90295 1.53302C6.90295 1.53302 6.90295 1.53302 6.90295 1.53302C6.90295 1.53302 6.90295 1.53302 6.90295 1.53302C6.90295 1.53302 6.90295 1.53302 6.90295 1.53302C6.90295 1.53302 6.90295 1.53302 6.90294 1.53302C6.90294 1.53302 6.90294 1.53302 6.90294 1.53302C6.90294 1.53302 6.90294 1.53303 6.90294 1.53303C6.90294 1.53303 6.90294 1.53303 6.90294 1.53303C6.90294 1.53303 6.90294 1.53303 6.90294 1.53303C6.90294 1.53303 6.90294 1.53303 6.90294 1.53303C6.90294 1.53303 6.90294 1.53303 6.90294 1.53303C6.90294 1.53303 6.90294 1.53303 6.90294 1.53303C6.90294 1.53303 6.90294 1.53303 6.90294 1.53303C6.90294 1.53303 6.90294 1.53303 6.90294 1.53303C6.90294 1.53303 6.90294 1.53303 6.90294 1.53303C6.90294 1.53303 6.90294 1.53303 6.90294 1.53303C6.90294 1.53303 6.90294 1.53303 6.90294 1.53303C6.90294 1.53303 6.90294 1.53303 6.90294 1.53303C6.90294 1.53303 6.90294 1.53303 6.90294 1.53303C6.90294 1.53303 6.90294 1.53303 6.90294 1.53303C6.90294 1.53303 6.90294 1.53303 6.90294 1.53303C6.90294 1.53303 6.90294 1.53303 6.90294 1.53303C6.90294 1.53303 6.90294 1.53303 6.90294 1.53303C6.90294 1.53303 6.90294 1.53303 6.90294 1.53303C6.90294 1.53303 6.90294 1.53303 6.90294 1.53303C6.90294 1.53303 6.90294 1.53303 6.90294 1.53303C6.90294 1.53303 6.90294 1.53303 6.90294 1.53303C6.90294 1.53303 6.90294 1.53303 6.90294 1.53303C6.90294 1.53303 6.90294 1.53303 6.90294 1.53303C6.90294 1.53303 6.90294 1.53303 6.90294 1.53303C6.90294 1.53303 6.90294 1.53303 6.90294 1.53303C6.90294 1.53303 6.90294 1.53303 6.90294 1.53303C6.90294 1.53303 6.90294 1.53303 6.90294 1.53303C6.90294 1.53303 6.90294 1.53303 6.90293 1.53303C6.90293 1.53303 6.90293 1.53303 6.90293 1.53303C6.90293 1.53303 6.90293 1.53303 6.90293 1.53303C6.90293 1.53303 6.90293 1.53303 6.90293 1.53303C6.90293 1.53303 6.90293 1.53303 6.90293 1.53303C6.90293 1.53303 6.90293 1.53303 6.90293 1.53303C6.90293 1.53303 6.90293 1.53304 6.90293 1.53304C6.90293 1.53304 6.90293 1.53304 6.90293 1.53304C6.90293 1.53304 6.90293 1.53304 6.90293 1.53304C6.90293 1.53304 6.90293 1.53304 6.90293 1.53304C6.90293 1.53304 6.90293 1.53304 6.90293 1.53304C6.90293 1.53304 6.90293 1.53304 6.90293 1.53304C6.90293 1.53304 6.90293 1.53304 6.90293 1.53304C6.90293 1.53304 6.90293 1.53304 6.90293 1.53304C6.90293 1.53304 6.90293 1.53304 6.90293 1.53304C6.90293 1.53304 6.90293 1.53304 6.90293 1.53304C6.90293 1.53304 6.90293 1.53304 6.90293 1.53304C6.90293 1.53304 6.90293 1.53304 6.90293 1.53304C6.90293 1.53304 6.90293 1.53304 6.90293 1.53304C6.90293 1.53304 6.90293 1.53304 6.90293 1.53304C6.90293 1.53304 6.90293 1.53304 6.90293 1.53304C6.90293 1.53304 6.90293 1.53304 6.90293 1.53304C6.90293 1.53304 6.90293 1.53304 6.90293 1.53304C6.90293 1.53304 6.90293 1.53304 6.90293 1.53304C6.90293 1.53304 6.90293 1.53304 6.90293 1.53304C6.90293 1.53304 6.90293 1.53304 6.90293 1.53304C6.90293 1.53304 6.90293 1.53304 6.90293 1.53304C6.90293 1.53304 6.90293 1.53304 6.90293 1.53304C6.90293 1.53304 6.90293 1.53304 6.90293 1.53304C6.90293 1.53304 6.90293 1.53304 6.90293 1.53304C6.90292 1.53304 6.90292 1.53304 6.90292 1.53304C6.90292 1.53304 6.90292 1.53304 6.90292 1.53304C6.90292 1.53304 6.90292 1.53304 6.90292 1.53304C6.90292 1.53304 6.90292 1.53304 6.90292 1.53304C6.90292 1.53304 6.90292 1.53304 6.90292 1.53304C6.90292 1.53304 6.90292 1.53304 6.90292 1.53304C6.90292 1.53304 6.90292 1.53304 6.90292 1.53304C6.90292 1.53304 6.90292 1.53304 6.90292 1.53304C6.90292 1.53304 6.90292 1.53304 6.90292 1.53304C6.90292 1.53304 6.90292 1.53304 6.90292 1.53305C6.90292 1.53305 6.90292 1.53305 6.90292 1.53305C6.90292 1.53305 6.90292 1.53305 6.90292 1.53305C6.90292 1.53305 6.90292 1.53305 6.90292 1.53305C6.90292 1.53305 6.90292 1.53305 6.90292 1.53305C6.90292 1.53305 6.90292 1.53305 6.90292 1.53305C6.90292 1.53305 6.90292 1.53305 6.90292 1.53305C6.90292 1.53305 6.90292 1.53305 6.90292 1.53305C6.90292 1.53305 6.90292 1.53305 6.90292 1.53305C6.90292 1.53305 6.90292 1.53305 6.90292 1.53305C6.90292 1.53305 6.90292 1.53305 6.90292 1.53305C6.90292 1.53305 6.90292 1.53305 6.90292 1.53305C6.90292 1.53305 6.90292 1.53305 6.90292 1.53305C6.90292 1.53305 6.90292 1.53305 6.90292 1.53305C6.90292 1.53305 6.90292 1.53305 6.90292 1.53305C6.90292 1.53305 6.90292 1.53305 6.90292 1.53305C6.90292 1.53305 6.90292 1.53305 6.90292 1.53305C6.90292 1.53305 6.90292 1.53305 6.90292 1.53305C6.90292 1.53305 6.90292 1.53305 6.90292 1.53305C6.90292 1.53305 6.90292 1.53305 6.90292 1.53305C6.90291 1.53305 6.90291 1.53305 6.90291 1.53305C6.90291 1.53305 6.90291 1.53305 6.90291 1.53305C6.90291 1.53305 6.90291 1.53305 6.90291 1.53305C6.90291 1.53305 6.90291 1.53305 6.90291 1.53305C6.90291 1.53305 6.90291 1.53305 6.90291 1.53305C6.90291 1.53305 6.90291 1.53305 6.90291 1.53305C6.90291 1.53305 6.90291 1.53305 6.90291 1.53305C6.90291 1.53305 6.90291 1.53305 6.90291 1.53305C6.90291 1.53305 6.90291 1.53305 6.90291 1.53305C6.90291 1.53305 6.90291 1.53305 6.90291 1.53305C6.90291 1.53305 6.90291 1.53305 6.90291 1.53305C6.90291 1.53305 6.90291 1.53305 6.90291 1.53305C6.90291 1.53305 6.90291 1.53305 6.90291 1.53305C6.90291 1.53305 6.90291 1.53305 6.90291 1.53306C6.90291 1.53306 6.90291 1.53306 6.90291 1.53306C6.90291 1.53306 6.90291 1.53306 6.90291 1.53306C6.90291 1.53306 6.90291 1.53306 6.90291 1.53306C6.90291 1.53306 6.90291 1.53306 6.90291 1.53306C6.90291 1.53306 6.90291 1.53306 6.90291 1.53306C6.90291 1.53306 6.90291 1.53306 6.90291 1.53306C6.90291 1.53306 6.90291 1.53306 6.90291 1.53306C6.90291 1.53306 6.90291 1.53306 6.90291 1.53306C6.90291 1.53306 6.90291 1.53306 6.90291 1.53306C6.90291 1.53306 6.90291 1.53306 6.90291 1.53306C6.90291 1.53306 6.90291 1.53306 6.90291 1.53306C6.90291 1.53306 6.90291 1.53306 6.90291 1.53306C6.90291 1.53306 6.90291 1.53306 6.90291 1.53306C6.90291 1.53306 6.90291 1.53306 6.90291 1.53306C6.9029 1.53306 6.9029 1.53306 6.9029 1.53306C6.9029 1.53306 6.9029 1.53306 6.9029 1.53306C6.9029 1.53306 6.9029 1.53306 6.9029 1.53306C6.9029 1.53306 6.9029 1.53306 6.9029 1.53306C6.9029 1.53306 6.9029 1.53306 6.9029 1.53306C6.9029 1.53306 6.9029 1.53306 6.9029 1.53306C6.9029 1.53306 6.9029 1.53306 6.9029 1.53306C6.9029 1.53306 6.9029 1.53306 6.9029 1.53306C6.9029 1.53306 6.9029 1.53306 6.9029 1.53306C6.9029 1.53306 6.9029 1.53306 6.9029 1.53306C6.9029 1.53306 6.9029 1.53306 6.9029 1.53306C6.9029 1.53306 6.9029 1.53306 6.9029 1.53306C6.9029 1.53306 6.9029 1.53306 6.9029 1.53306C6.9029 1.53306 6.9029 1.53306 6.9029 1.53306L7.23259 1.90897C7.23259 1.90897 7.23259 1.90897 7.23259 1.90897C7.23259 1.90897 7.23259 1.90897 7.23259 1.90897C7.23259 1.90897 7.23259 1.90897 7.23259 1.90897C7.23259 1.90897 7.23259 1.90897 7.23259 1.90897C7.23259 1.90897 7.23259 1.90897 7.23259 1.90897C7.23259 1.90897 7.23259 1.90897 7.23259 1.90897C7.23259 1.90897 7.23259 1.90897 7.23259 1.90897C7.23259 1.90897 7.23259 1.90897 7.23259 1.90897C7.23259 1.90897 7.23259 1.90897 7.23259 1.90897C7.23259 1.90897 7.23259 1.90897 7.23259 1.90897C7.23259 1.90897 7.23259 1.90897 7.23259 1.90897C7.23259 1.90897 7.23259 1.90897 7.23259 1.90897C7.23259 1.90897 7.23259 1.90897 7.23259 1.90897C7.23259 1.90897 7.23259 1.90897 7.23259 1.90897C7.23259 1.90897 7.23259 1.90897 7.23259 1.90897C7.23259 1.90897 7.23259 1.90897 7.23259 1.90897C7.23259 1.90897 7.23259 1.90897 7.23259 1.90897C7.23259 1.90897 7.23259 1.90897 7.23259 1.90897C7.23259 1.90897 7.23259 1.90897 7.23259 1.90897C7.23259 1.90897 7.23259 1.90897 7.23259 1.90897C7.23259 1.90897 7.23259 1.90897 7.23259 1.90897C7.23259 1.90897 7.23259 1.90897 7.23259 1.90897C7.23259 1.90897 7.23259 1.90897 7.23259 1.90897C7.23259 1.90897 7.23259 1.90897 7.23259 1.90897C7.23259 1.90897 7.23259 1.90897 7.23259 1.90897C7.23259 1.90897 7.23259 1.90897 7.23259 1.90897C7.23259 1.90896 7.23259 1.90896 7.23259 1.90896C7.23259 1.90896 7.23259 1.90896 7.23259 1.90896C7.23259 1.90896 7.23259 1.90896 7.23259 1.90896C7.2326 1.90896 7.2326 1.90896 7.2326 1.90896C7.2326 1.90896 7.2326 1.90896 7.2326 1.90896C7.2326 1.90896 7.2326 1.90896 7.2326 1.90896C7.2326 1.90896 7.2326 1.90896 7.2326 1.90896C7.2326 1.90896 7.2326 1.90896 7.2326 1.90896C7.2326 1.90896 7.2326 1.90896 7.2326 1.90896C7.2326 1.90896 7.2326 1.90896 7.2326 1.90896C7.2326 1.90896 7.2326 1.90896 7.2326 1.90896C7.2326 1.90896 7.2326 1.90896 7.2326 1.90896C7.2326 1.90896 7.2326 1.90896 7.2326 1.90896C7.2326 1.90896 7.2326 1.90896 7.2326 1.90896C7.2326 1.90896 7.2326 1.90896 7.2326 1.90896C7.2326 1.90896 7.2326 1.90896 7.2326 1.90896C7.2326 1.90896 7.2326 1.90896 7.2326 1.90896C7.2326 1.90896 7.2326 1.90896 7.2326 1.90896C7.2326 1.90896 7.2326 1.90896 7.2326 1.90896C7.2326 1.90896 7.2326 1.90896 7.2326 1.90896C7.2326 1.90896 7.2326 1.90896 7.2326 1.90896C7.2326 1.90896 7.2326 1.90896 7.2326 1.90896C7.2326 1.90896 7.2326 1.90896 7.2326 1.90896C7.2326 1.90896 7.2326 1.90896 7.2326 1.90896C7.2326 1.90896 7.2326 1.90896 7.2326 1.90896C7.2326 1.90896 7.2326 1.90896 7.2326 1.90896C7.2326 1.90896 7.2326 1.90896 7.2326 1.90896C7.2326 1.90896 7.2326 1.90896 7.2326 1.90896C7.2326 1.90896 7.2326 1.90896 7.2326 1.90896C7.2326 1.90896 7.2326 1.90896 7.2326 1.90896C7.2326 1.90896 7.2326 1.90896 7.2326 1.90896C7.2326 1.90896 7.2326 1.90896 7.2326 1.90896C7.23261 1.90896 7.23261 1.90896 7.23261 1.90896C7.23261 1.90896 7.23261 1.90895 7.23261 1.90895C7.23261 1.90895 7.23261 1.90895 7.23261 1.90895C7.23261 1.90895 7.23261 1.90895 7.23261 1.90895C7.23261 1.90895 7.23261 1.90895 7.23261 1.90895C7.23261 1.90895 7.23261 1.90895 7.23261 1.90895C7.23261 1.90895 7.23261 1.90895 7.23261 1.90895C7.23261 1.90895 7.23261 1.90895 7.23261 1.90895C7.23261 1.90895 7.23261 1.90895 7.23261 1.90895C7.23261 1.90895 7.23261 1.90895 7.23261 1.90895C7.23261 1.90895 7.23261 1.90895 7.23261 1.90895C7.23261 1.90895 7.23261 1.90895 7.23261 1.90895C7.23261 1.90895 7.23261 1.90895 7.23261 1.90895C7.23261 1.90895 7.23261 1.90895 7.23261 1.90895C7.23261 1.90895 7.23261 1.90895 7.23261 1.90895C7.23261 1.90895 7.23261 1.90895 7.23261 1.90895C7.23261 1.90895 7.23261 1.90895 7.23261 1.90895C7.23261 1.90895 7.23261 1.90895 7.23261 1.90895C7.23261 1.90895 7.23261 1.90895 7.23261 1.90895C7.23261 1.90895 7.23261 1.90895 7.23261 1.90895C7.23261 1.90895 7.23261 1.90895 7.23261 1.90895C7.23261 1.90895 7.23261 1.90895 7.23261 1.90895C7.23261 1.90895 7.23261 1.90895 7.23261 1.90895C7.23261 1.90895 7.23261 1.90895 7.23261 1.90895C7.23261 1.90895 7.23261 1.90895 7.23261 1.90895C7.23261 1.90895 7.23261 1.90895 7.23261 1.90895C7.23261 1.90895 7.23261 1.90895 7.23261 1.90895C7.23261 1.90895 7.23261 1.90895 7.23261 1.90895C7.23261 1.90895 7.23261 1.90895 7.23261 1.90895C7.23262 1.90895 7.23262 1.90895 7.23262 1.90895C7.23262 1.90895 7.23262 1.90895 7.23262 1.90895C7.23262 1.90895 7.23262 1.90895 7.23262 1.90895C7.23262 1.90895 7.23262 1.90895 7.23262 1.90895C7.23262 1.90895 7.23262 1.90895 7.23262 1.90895C7.23262 1.90895 7.23262 1.90894 7.23262 1.90894C7.23262 1.90894 7.23262 1.90894 7.23262 1.90894C7.23262 1.90894 7.23262 1.90894 7.23262 1.90894C7.23262 1.90894 7.23262 1.90894 7.23262 1.90894C7.23262 1.90894 7.23262 1.90894 7.23262 1.90894C7.23262 1.90894 7.23262 1.90894 7.23262 1.90894C7.23262 1.90894 7.23262 1.90894 7.23262 1.90894C7.23262 1.90894 7.23262 1.90894 7.23262 1.90894C7.23262 1.90894 7.23262 1.90894 7.23262 1.90894C7.23262 1.90894 7.23262 1.90894 7.23262 1.90894C7.23262 1.90894 7.23262 1.90894 7.23262 1.90894C7.23262 1.90894 7.23262 1.90894 7.23262 1.90894C7.23262 1.90894 7.23262 1.90894 7.23262 1.90894C7.23262 1.90894 7.23262 1.90894 7.23262 1.90894C7.23262 1.90894 7.23262 1.90894 7.23262 1.90894C7.23262 1.90894 7.23262 1.90894 7.23262 1.90894C7.23262 1.90894 7.23262 1.90894 7.23262 1.90894C7.23262 1.90894 7.23262 1.90894 7.23262 1.90894C7.23262 1.90894 7.23262 1.90894 7.23262 1.90894C7.23262 1.90894 7.23262 1.90894 7.23262 1.90894C7.23262 1.90894 7.23262 1.90894 7.23262 1.90894C7.23262 1.90894 7.23262 1.90894 7.23262 1.90894C7.23262 1.90894 7.23262 1.90894 7.23262 1.90894C7.23263 1.90894 7.23263 1.90894 7.23263 1.90894C7.23263 1.90894 7.23263 1.90894 7.23263 1.90894C7.23263 1.90894 7.23263 1.90894 7.23263 1.90894C7.23263 1.90894 7.23263 1.90894 7.23263 1.90894C7.23263 1.90894 7.23263 1.90894 7.23263 1.90894C7.23263 1.90894 7.23263 1.90894 7.23263 1.90894C7.23263 1.90894 7.23263 1.90894 7.23263 1.90894C7.23263 1.90894 7.23263 1.90894 7.23263 1.90894C7.23263 1.90894 7.23263 1.90894 7.23263 1.90894C7.23263 1.90894 7.23263 1.90894 7.23263 1.90894C7.23263 1.90894 7.23263 1.90894 7.23263 1.90893C7.23263 1.90893 7.23263 1.90893 7.23263 1.90893C7.23263 1.90893 7.23263 1.90893 7.23263 1.90893C7.23263 1.90893 7.23263 1.90893 7.23263 1.90893C7.23263 1.90893 7.23263 1.90893 7.23263 1.90893C7.23263 1.90893 7.23263 1.90893 7.23263 1.90893C7.23263 1.90893 7.23263 1.90893 7.23263 1.90893C7.23263 1.90893 7.23263 1.90893 7.23263 1.90893C7.23263 1.90893 7.23263 1.90893 7.23263 1.90893C7.23263 1.90893 7.23263 1.90893 7.23263 1.90893C7.23263 1.90893 7.23263 1.90893 7.23263 1.90893C7.23263 1.90893 7.23263 1.90893 7.23263 1.90893C7.23263 1.90893 7.23263 1.90893 7.23263 1.90893C7.23263 1.90893 7.23263 1.90893 7.23263 1.90893C7.23263 1.90893 7.23263 1.90893 7.23263 1.90893C7.23263 1.90893 7.23263 1.90893 7.23263 1.90893C7.23263 1.90893 7.23263 1.90893 7.23263 1.90893C7.23263 1.90893 7.23263 1.90893 7.23263 1.90893C7.23263 1.90893 7.23263 1.90893 7.23263 1.90893C7.23264 1.90893 7.23264 1.90893 7.23264 1.90893C7.23264 1.90893 7.23264 1.90893 7.23264 1.90893C7.23264 1.90893 7.23264 1.90893 7.23264 1.90893C7.23264 1.90893 7.23264 1.90893 7.23264 1.90893C7.23264 1.90893 7.23264 1.90893 7.23264 1.90893C7.23264 1.90893 7.23264 1.90893 7.23264 1.90893C7.23264 1.90893 7.23264 1.90893 7.23264 1.90893C7.23264 1.90893 7.23264 1.90893 7.23264 1.90893C7.23264 1.90893 7.23264 1.90893 7.23264 1.90893C7.23264 1.90893 7.23264 1.90893 7.23264 1.90893C7.23264 1.90893 7.23264 1.90893 7.23264 1.90893C7.23264 1.90893 7.23264 1.90893 7.23264 1.90893C7.23264 1.90893 7.23264 1.90893 7.23264 1.90893C7.23264 1.90893 7.23264 1.90893 7.23264 1.90893C7.23264 1.90893 7.23264 1.90893 7.23264 1.90893C7.23264 1.90892 7.23264 1.90892 7.23264 1.90892C7.23264 1.90892 7.23264 1.90892 7.23264 1.90892C7.23264 1.90892 7.23264 1.90892 7.23264 1.90892C7.23264 1.90892 7.23264 1.90892 7.23264 1.90892C7.23264 1.90892 7.23264 1.90892 7.23264 1.90892C7.23264 1.90892 7.23264 1.90892 7.23264 1.90892C7.23264 1.90892 7.23264 1.90892 7.23264 1.90892C7.23264 1.90892 7.23264 1.90892 7.23264 1.90892C7.23264 1.90892 7.23264 1.90892 7.23264 1.90892C7.23264 1.90892 7.23264 1.90892 7.23264 1.90892C7.23264 1.90892 7.23264 1.90892 7.23264 1.90892C7.23264 1.90892 7.23264 1.90892 7.23264 1.90892C7.23264 1.90892 7.23264 1.90892 7.23264 1.90892C7.23264 1.90892 7.23264 1.90892 7.23264 1.90892C7.23265 1.90892 7.23265 1.90892 7.23265 1.90892C7.23265 1.90892 7.23265 1.90892 7.23265 1.90892C7.23265 1.90892 7.23265 1.90892 7.23265 1.90892C7.23265 1.90892 7.23265 1.90892 7.23265 1.90892C7.23265 1.90892 7.23265 1.90892 7.23265 1.90892C7.23265 1.90892 7.23265 1.90892 7.23265 1.90892C7.23265 1.90892 7.23265 1.90892 7.23265 1.90892C7.23265 1.90892 7.23265 1.90892 7.23265 1.90892C7.23265 1.90892 7.23265 1.90892 7.23265 1.90892C7.23265 1.90892 7.23265 1.90892 7.23265 1.90892C7.23265 1.90892 7.23265 1.90892 7.23265 1.90892C7.23265 1.90892 7.23265 1.90892 7.23265 1.90892C7.23265 1.90892 7.23265 1.90892 7.23265 1.90892C7.23265 1.90892 7.23265 1.90892 7.23265 1.90892C7.23265 1.90892 7.23265 1.90892 7.23265 1.90892C7.23265 1.90892 7.23265 1.90892 7.23265 1.90892C7.23265 1.90892 7.23265 1.90892 7.23265 1.90892C7.23265 1.90892 7.23265 1.90892 7.23265 1.90892C7.23265 1.90892 7.23265 1.90892 7.23265 1.90892C7.23265 1.90891 7.23265 1.90891 7.23265 1.90891C7.23265 1.90891 7.23265 1.90891 7.23265 1.90891C7.23265 1.90891 7.23265 1.90891 7.23265 1.90891C7.23265 1.90891 7.23265 1.90891 7.23265 1.90891C7.23265 1.90891 7.23265 1.90891 7.23265 1.90891C7.23265 1.90891 7.23265 1.90891 7.23265 1.90891C7.23265 1.90891 7.23265 1.90891 7.23265 1.90891C7.23265 1.90891 7.23265 1.90891 7.23265 1.90891C7.23265 1.90891 7.23265 1.90891 7.23265 1.90891C7.23265 1.90891 7.23265 1.90891 7.23265 1.90891C7.23265 1.90891 7.23266 1.90891 7.23266 1.90891C7.23266 1.90891 7.23266 1.90891 7.23266 1.90891C7.23266 1.90891 7.23266 1.90891 7.23266 1.90891C7.23266 1.90891 7.23266 1.90891 7.23266 1.90891C7.23266 1.90891 7.23266 1.90891 7.23266 1.90891C7.23266 1.90891 7.23266 1.90891 7.23266 1.90891C7.23266 1.90891 7.23266 1.90891 7.23266 1.90891C7.23266 1.90891 7.23266 1.90891 7.23266 1.90891C7.23266 1.90891 7.23266 1.90891 7.23266 1.90891C7.23266 1.90891 7.23266 1.90891 7.23266 1.90891C7.23266 1.90891 7.23266 1.90891 7.23266 1.90891C7.23266 1.90891 7.23266 1.90891 7.23266 1.90891C7.23266 1.90891 7.23266 1.90891 7.23266 1.90891C7.23266 1.90891 7.23266 1.90891 7.23266 1.90891C7.23266 1.90891 7.23266 1.90891 7.23266 1.90891C7.23266 1.90891 7.23266 1.90891 7.23266 1.90891C7.23266 1.90891 7.23266 1.90891 7.23266 1.90891C7.23266 1.90891 7.23266 1.90891 7.23266 1.90891C7.23266 1.90891 7.23266 1.90891 7.23266 1.90891C7.23266 1.90891 7.23266 1.90891 7.23266 1.90891C7.23266 1.90891 7.23266 1.90891 7.23266 1.90891C7.23266 1.90891 7.23266 1.90891 7.23266 1.90891C7.23266 1.90891 7.23266 1.90891 7.23266 1.90891C7.23266 1.90891 7.23266 1.9089 7.23266 1.9089C7.23266 1.9089 7.23266 1.9089 7.23266 1.9089C7.23266 1.9089 7.23266 1.9089 7.23266 1.9089C7.23266 1.9089 7.23266 1.9089 7.23266 1.9089C7.23266 1.9089 7.23266 1.9089 7.23266 1.9089C7.23266 1.9089 7.23266 1.9089 7.23266 1.9089C7.23266 1.9089 7.23267 1.9089 7.23267 1.9089C7.23267 1.9089 7.23267 1.9089 7.23267 1.9089C7.23267 1.9089 7.23267 1.9089 7.23267 1.9089C7.23267 1.9089 7.23267 1.9089 7.23267 1.9089C7.23267 1.9089 7.23267 1.9089 7.23267 1.9089C7.23267 1.9089 7.23267 1.9089 7.23267 1.9089C7.23267 1.9089 7.23267 1.9089 7.23267 1.9089C7.23267 1.9089 7.23267 1.9089 7.23267 1.9089C7.23267 1.9089 7.23267 1.9089 7.23267 1.9089C7.23267 1.9089 7.23267 1.9089 7.23267 1.9089C7.23267 1.9089 7.23267 1.9089 7.23267 1.9089C7.23267 1.9089 7.23267 1.9089 7.23267 1.9089C7.23267 1.9089 7.23267 1.9089 7.23267 1.9089C7.23267 1.9089 7.23267 1.9089 7.23267 1.9089C7.23267 1.9089 7.23267 1.9089 7.23267 1.9089C7.23267 1.9089 7.23267 1.9089 7.23267 1.9089C7.23267 1.9089 7.23267 1.9089 7.23267 1.9089C7.23267 1.9089 7.23267 1.9089 7.23267 1.9089C7.23267 1.9089 7.23267 1.9089 7.23267 1.9089C7.23267 1.9089 7.23267 1.9089 7.23267 1.9089C7.23267 1.9089 7.23267 1.9089 7.23267 1.9089C7.23267 1.9089 7.23267 1.9089 7.23267 1.9089C7.23267 1.9089 7.23267 1.9089 7.23267 1.9089C7.23267 1.9089 7.23267 1.9089 7.23267 1.9089C7.23267 1.9089 7.23267 1.9089 7.23267 1.9089C7.23267 1.9089 7.23267 1.9089 7.23267 1.9089C7.23267 1.9089 7.23267 1.9089 7.23267 1.9089C7.23267 1.9089 7.23267 1.9089 7.23267 1.90889C7.23267 1.90889 7.23267 1.90889 7.23267 1.90889C7.23267 1.90889 7.23267 1.90889 7.23268 1.90889C7.23268 1.90889 7.23268 1.90889 7.23268 1.90889C7.23268 1.90889 7.23268 1.90889 7.23268 1.90889C7.23268 1.90889 7.23268 1.90889 7.23268 1.90889C7.23268 1.90889 7.23268 1.90889 7.23268 1.90889C7.23268 1.90889 7.23268 1.90889 7.23268 1.90889C7.23268 1.90889 7.23268 1.90889 7.23268 1.90889C7.23268 1.90889 7.23268 1.90889 7.23268 1.90889C7.23268 1.90889 7.23268 1.90889 7.23268 1.90889C7.23268 1.90889 7.23268 1.90889 7.23268 1.90889C7.23268 1.90889 7.23268 1.90889 7.23268 1.90889C7.23268 1.90889 7.23268 1.90889 7.23268 1.90889C7.23268 1.90889 7.23268 1.90889 7.23268 1.90889C7.23268 1.90889 7.23268 1.90889 7.23268 1.90889C7.23268 1.90889 7.23268 1.90889 7.23268 1.90889C7.23268 1.90889 7.23268 1.90889 7.23268 1.90889C7.23268 1.90889 7.23268 1.90889 7.23268 1.90889C7.23268 1.90889 7.23268 1.90889 7.23268 1.90889C7.23268 1.90889 7.23268 1.90889 7.23268 1.90889C7.23268 1.90889 7.23268 1.90889 7.23268 1.90889C7.23268 1.90889 7.23268 1.90889 7.23268 1.90889C7.23268 1.90889 7.23268 1.90889 7.23268 1.90889C7.23268 1.90889 7.23268 1.90889 7.23268 1.90889C7.23268 1.90889 7.23268 1.90889 7.23268 1.90889C7.23268 1.90889 7.23268 1.90889 7.23268 1.90889C7.23268 1.90889 7.23268 1.90889 7.23268 1.90889C7.23268 1.90889 7.23268 1.90889 7.23268 1.90889C7.23268 1.90889 7.23268 1.90889 7.23268 1.90889C7.23268 1.90889 7.23268 1.90889 7.23268 1.90889C7.23268 1.90889 7.23268 1.90889 7.23269 1.90889C7.23269 1.90889 7.23269 1.90889 7.23269 1.90889C7.23269 1.90889 7.23269 1.90889 7.23269 1.90888C7.23269 1.90888 7.23269 1.90888 7.23269 1.90888C7.23269 1.90888 7.23269 1.90888 7.23269 1.90888C7.23269 1.90888 7.23269 1.90888 7.23269 1.90888C7.23269 1.90888 7.23269 1.90888 7.23269 1.90888C7.23269 1.90888 7.23269 1.90888 7.23269 1.90888C7.23269 1.90888 7.23269 1.90888 7.23269 1.90888C7.23269 1.90888 7.23269 1.90888 7.23269 1.90888C7.23269 1.90888 7.23269 1.90888 7.23269 1.90888C7.23269 1.90888 7.23269 1.90888 7.23269 1.90888C7.23269 1.90888 7.23269 1.90888 7.23269 1.90888C7.23269 1.90888 7.23269 1.90888 7.23269 1.90888C7.23269 1.90888 7.23269 1.90888 7.23269 1.90888C7.23269 1.90888 7.23269 1.90888 7.23269 1.90888C7.23269 1.90888 7.23269 1.90888 7.23269 1.90888C7.23269 1.90888 7.23269 1.90888 7.23269 1.90888C7.23269 1.90888 7.23269 1.90888 7.23269 1.90888C7.23269 1.90888 7.23269 1.90888 7.23269 1.90888C7.23269 1.90888 7.23269 1.90888 7.23269 1.90888C7.23269 1.90888 7.23269 1.90888 7.23269 1.90888C7.23269 1.90888 7.23269 1.90888 7.23269 1.90888C7.23269 1.90888 7.23269 1.90888 7.23269 1.90888C7.23269 1.90888 7.23269 1.90888 7.23269 1.90888C7.23269 1.90888 7.23269 1.90888 7.23269 1.90888C7.23269 1.90888 7.23269 1.90888 7.23269 1.90888C7.23269 1.90888 7.23269 1.90888 7.23269 1.90888C7.23269 1.90888 7.23269 1.90888 7.23269 1.90888C7.23269 1.90888 7.23269 1.90888 7.23269 1.90888C7.2327 1.90888 7.2327 1.90888 7.2327 1.90888C7.2327 1.90888 7.2327 1.90888 7.2327 1.90888C7.2327 1.90888 7.2327 1.90888 7.2327 1.90888C7.2327 1.90888 7.2327 1.90888 7.2327 1.90888C7.2327 1.90888 7.2327 1.90888 7.2327 1.90888C7.2327 1.90888 7.2327 1.90888 7.2327 1.90887C7.2327 1.90887 7.2327 1.90887 7.2327 1.90887C7.2327 1.90887 7.2327 1.90887 7.2327 1.90887C7.2327 1.90887 7.2327 1.90887 7.2327 1.90887C7.2327 1.90887 7.2327 1.90887 7.2327 1.90887C7.2327 1.90887 7.2327 1.90887 7.2327 1.90887C7.2327 1.90887 7.2327 1.90887 7.2327 1.90887C7.2327 1.90887 7.2327 1.90887 7.2327 1.90887C7.2327 1.90887 7.2327 1.90887 7.2327 1.90887C7.2327 1.90887 7.2327 1.90887 7.2327 1.90887C7.2327 1.90887 7.2327 1.90887 7.2327 1.90887C7.2327 1.90887 7.2327 1.90887 7.2327 1.90887C7.2327 1.90887 7.2327 1.90887 7.2327 1.90887C7.2327 1.90887 7.2327 1.90887 7.2327 1.90887C7.2327 1.90887 7.2327 1.90887 7.2327 1.90887C7.2327 1.90887 7.2327 1.90887 7.2327 1.90887C7.2327 1.90887 7.2327 1.90887 7.2327 1.90887C7.2327 1.90887 7.2327 1.90887 7.2327 1.90887C7.2327 1.90887 7.2327 1.90887 7.2327 1.90887C7.2327 1.90887 7.2327 1.90887 7.2327 1.90887C7.2327 1.90887 7.2327 1.90887 7.2327 1.90887C7.2327 1.90887 7.2327 1.90887 7.2327 1.90887C7.2327 1.90887 7.2327 1.90887 7.2327 1.90887C7.2327 1.90887 7.2327 1.90887 7.2327 1.90887C7.23271 1.90887 7.23271 1.90887 7.23271 1.90887C7.23271 1.90887 7.23271 1.90887 7.23271 1.90887C7.23271 1.90887 7.23271 1.90887 7.23271 1.90887C7.23271 1.90887 7.23271 1.90887 7.23271 1.90887C7.23271 1.90887 7.23271 1.90887 7.23271 1.90887C7.23271 1.90887 7.23271 1.90887 7.23271 1.90887C7.23271 1.90887 7.23271 1.90887 7.23271 1.90887C7.23271 1.90887 7.23271 1.90887 7.23271 1.90887C7.23271 1.90887 7.23271 1.90887 7.23271 1.90887C7.23271 1.90887 7.23271 1.90887 7.23271 1.90886C7.23271 1.90886 7.23271 1.90886 7.23271 1.90886C7.23271 1.90886 7.23271 1.90886 7.23271 1.90886C7.23271 1.90886 7.23271 1.90886 7.23271 1.90886C7.23271 1.90886 7.23271 1.90886 7.23271 1.90886C7.23271 1.90886 7.23271 1.90886 7.23271 1.90886C7.23271 1.90886 7.23271 1.90886 7.23271 1.90886C7.23271 1.90886 7.23271 1.90886 7.23271 1.90886C7.23271 1.90886 7.23271 1.90886 7.23271 1.90886C7.23271 1.90886 7.23271 1.90886 7.23271 1.90886C7.23271 1.90886 7.23271 1.90886 7.23271 1.90886C7.23271 1.90886 7.23271 1.90886 7.23271 1.90886C7.23271 1.90886 7.23271 1.90886 7.23271 1.90886C7.23271 1.90886 7.23271 1.90886 7.23271 1.90886C7.23271 1.90886 7.23271 1.90886 7.23271 1.90886C7.23271 1.90886 7.23271 1.90886 7.23271 1.90886C7.23271 1.90886 7.23271 1.90886 7.23271 1.90886C7.23271 1.90886 7.23271 1.90886 7.23271 1.90886C7.23271 1.90886 7.23271 1.90886 7.23271 1.90886C7.23271 1.90886 7.23271 1.90886 7.23271 1.90886C7.23272 1.90886 7.23272 1.90886 7.23272 1.90886C7.23272 1.90886 7.23272 1.90886 7.23272 1.90886C7.23272 1.90886 7.23272 1.90886 7.23272 1.90886C7.23272 1.90886 7.23272 1.90886 7.23272 1.90886C7.23272 1.90886 7.23272 1.90886 7.23272 1.90886C7.23272 1.90886 7.23272 1.90886 7.23272 1.90886C7.23272 1.90886 7.23272 1.90886 7.23272 1.90886C7.23272 1.90886 7.23272 1.90886 7.23272 1.90886C7.23272 1.90886 7.23272 1.90886 7.23272 1.90886C7.23272 1.90886 7.23272 1.90886 7.23272 1.90886C7.23272 1.90886 7.23272 1.90886 7.23272 1.90886C7.23272 1.90886 7.23272 1.90886 7.23272 1.90886C7.23272 1.90886 7.23272 1.90886 7.23272 1.90886C7.23272 1.90886 7.23272 1.90886 7.23272 1.90886C7.23272 1.90885 7.23272 1.90885 7.23272 1.90885C7.23272 1.90885 7.23272 1.90885 7.23272 1.90885C7.23272 1.90885 7.23272 1.90885 7.23272 1.90885C7.23272 1.90885 7.23272 1.90885 7.23272 1.90885C7.23272 1.90885 7.23272 1.90885 7.23272 1.90885C7.23272 1.90885 7.23272 1.90885 7.23272 1.90885C7.23272 1.90885 7.23272 1.90885 7.23272 1.90885C7.23272 1.90885 7.23272 1.90885 7.23272 1.90885C7.23272 1.90885 7.23272 1.90885 7.23272 1.90885C7.23272 1.90885 7.23272 1.90885 7.23272 1.90885C7.23272 1.90885 7.23272 1.90885 7.23272 1.90885C7.23272 1.90885 7.23272 1.90885 7.23272 1.90885C7.23272 1.90885 7.23272 1.90885 7.23272 1.90885C7.23272 1.90885 7.23272 1.90885 7.23272 1.90885C7.23272 1.90885 7.23272 1.90885 7.23272 1.90885C7.23272 1.90885 7.23273 1.90885 7.23273 1.90885C7.23273 1.90885 7.23273 1.90885 7.23273 1.90885C7.23273 1.90885 7.23273 1.90885 7.23273 1.90885C7.23273 1.90885 7.23273 1.90885 7.23273 1.90885C7.23273 1.90885 7.23273 1.90885 7.23273 1.90885C7.23273 1.90885 7.23273 1.90885 7.23273 1.90885C7.23273 1.90885 7.23273 1.90885 7.23273 1.90885C7.23273 1.90885 7.23273 1.90885 7.23273 1.90885C7.23273 1.90885 7.23273 1.90885 7.23273 1.90885C7.23273 1.90885 7.23273 1.90885 7.23273 1.90885C7.23273 1.90885 7.23273 1.90885 7.23273 1.90885C7.23273 1.90885 7.23273 1.90885 7.23273 1.90885C7.23273 1.90885 7.23273 1.90885 7.23273 1.90885C7.23273 1.90885 7.23273 1.90885 7.23273 1.90885C7.23273 1.90885 7.23273 1.90885 7.23273 1.90885C7.23273 1.90885 7.23273 1.90885 7.23273 1.90885C7.23273 1.90885 7.23273 1.90885 7.23273 1.90885C7.23273 1.90885 7.23273 1.90885 7.23273 1.90885C7.23273 1.90885 7.23273 1.90884 7.23273 1.90884C7.23273 1.90884 7.23273 1.90884 7.23273 1.90884C7.23273 1.90884 7.23273 1.90884 7.23273 1.90884C7.23273 1.90884 7.23273 1.90884 7.23273 1.90884C7.23273 1.90884 7.23273 1.90884 7.23273 1.90884C7.23273 1.90884 7.23273 1.90884 7.23273 1.90884C7.23273 1.90884 7.23273 1.90884 7.23273 1.90884C7.23273 1.90884 7.23273 1.90884 7.23273 1.90884C7.23273 1.90884 7.23273 1.90884 7.23273 1.90884C7.23273 1.90884 7.23273 1.90884 7.23273 1.90884C7.23273 1.90884 7.23273 1.90884 7.23273 1.90884C7.23273 1.90884 7.23274 1.90884 7.23274 1.90884C7.23274 1.90884 7.23274 1.90884 7.23274 1.90884C7.23274 1.90884 7.23274 1.90884 7.23274 1.90884C7.23274 1.90884 7.23274 1.90884 7.23274 1.90884C7.23274 1.90884 7.23274 1.90884 7.23274 1.90884C7.23274 1.90884 7.23274 1.90884 7.23274 1.90884C7.23274 1.90884 7.23274 1.90884 7.23274 1.90884C7.23274 1.90884 7.23274 1.90884 7.23274 1.90884C7.23274 1.90884 7.23274 1.90884 7.23274 1.90884C7.23274 1.90884 7.23274 1.90884 7.23274 1.90884C7.23274 1.90884 7.23274 1.90884 7.23274 1.90884C7.23274 1.90884 7.23274 1.90884 7.23274 1.90884C7.23274 1.90884 7.23274 1.90884 7.23274 1.90884C7.23274 1.90884 7.23274 1.90884 7.23274 1.90884C7.23274 1.90884 7.23274 1.90884 7.23274 1.90884C7.23274 1.90884 7.23274 1.90884 7.23274 1.90884C7.23274 1.90884 7.23274 1.90884 7.23274 1.90884C7.23274 1.90884 7.23274 1.90884 7.23274 1.90884C7.23274 1.90884 7.23274 1.90884 7.23274 1.90884C7.23274 1.90884 7.23274 1.90884 7.23274 1.90884C7.23274 1.90884 7.23274 1.90884 7.23274 1.90884C7.23274 1.90884 7.23274 1.90884 7.23274 1.90884C7.23274 1.90884 7.23274 1.90883 7.23274 1.90883C7.23274 1.90883 7.23274 1.90883 7.23274 1.90883C7.23274 1.90883 7.23274 1.90883 7.23274 1.90883C7.23274 1.90883 7.23274 1.90883 7.23274 1.90883C7.23274 1.90883 7.23274 1.90883 7.23274 1.90883C7.23274 1.90883 7.23274 1.90883 7.23274 1.90883C7.23274 1.90883 7.23274 1.90883 7.23274 1.90883C7.23274 1.90883 7.23274 1.90883 7.23275 1.90883C7.23275 1.90883 7.23275 1.90883 7.23275 1.90883C7.23275 1.90883 7.23275 1.90883 7.23275 1.90883C7.23275 1.90883 7.23275 1.90883 7.23275 1.90883C7.23275 1.90883 7.23275 1.90883 7.23275 1.90883C7.23275 1.90883 7.23275 1.90883 7.23275 1.90883C7.23275 1.90883 7.23275 1.90883 7.23275 1.90883C7.23275 1.90883 7.23275 1.90883 7.23275 1.90883C7.23275 1.90883 7.23275 1.90883 7.23275 1.90883C7.23275 1.90883 7.23275 1.90883 7.23275 1.90883C7.23275 1.90883 7.23275 1.90883 7.23275 1.90883C7.23275 1.90883 7.23275 1.90883 7.23275 1.90883C7.23275 1.90883 7.23275 1.90883 7.23275 1.90883C7.23275 1.90883 7.23275 1.90883 7.23275 1.90883C7.23275 1.90883 7.23275 1.90883 7.23275 1.90883C7.23275 1.90883 7.23275 1.90883 7.23275 1.90883C7.23275 1.90883 7.23275 1.90883 7.23275 1.90883C7.23275 1.90883 7.23275 1.90883 7.23275 1.90883C7.23275 1.90883 7.23275 1.90883 7.23275 1.90883C7.23275 1.90883 7.23275 1.90883 7.23275 1.90883C7.23275 1.90883 7.23275 1.90883 7.23275 1.90883C7.23275 1.90883 7.23275 1.90883 7.23275 1.90883C7.23275 1.90883 7.23275 1.90883 7.23275 1.90883C7.23275 1.90883 7.23275 1.90883 7.23275 1.90883C7.23275 1.90883 7.23275 1.90883 7.23275 1.90883C7.23275 1.90883 7.23275 1.90883 7.23275 1.90883C7.23275 1.90883 7.23275 1.90883 7.23275 1.90882C7.23275 1.90882 7.23275 1.90882 7.23275 1.90882C7.23275 1.90882 7.23275 1.90882 7.23275 1.90882C7.23275 1.90882 7.23275 1.90882 7.23276 1.90882C7.23276 1.90882 7.23276 1.90882 7.23276 1.90882C7.23276 1.90882 7.23276 1.90882 7.23276 1.90882C7.23276 1.90882 7.23276 1.90882 7.23276 1.90882C7.23276 1.90882 7.23276 1.90882 7.23276 1.90882C7.23276 1.90882 7.23276 1.90882 7.23276 1.90882C7.23276 1.90882 7.23276 1.90882 7.23276 1.90882C7.23276 1.90882 7.23276 1.90882 7.23276 1.90882C7.23276 1.90882 7.23276 1.90882 7.23276 1.90882C7.23276 1.90882 7.23276 1.90882 7.23276 1.90882C7.23276 1.90882 7.23276 1.90882 7.23276 1.90882C7.23276 1.90882 7.23276 1.90882 7.23276 1.90882C7.23276 1.90882 7.23276 1.90882 7.23276 1.90882C7.23276 1.90882 7.23276 1.90882 7.23276 1.90882C7.23276 1.90882 7.23276 1.90882 7.23276 1.90882C7.23276 1.90882 7.23276 1.90882 7.23276 1.90882C7.23276 1.90882 7.23276 1.90882 7.23276 1.90882C7.23276 1.90882 7.23276 1.90882 7.23276 1.90882C7.23276 1.90882 7.23276 1.90882 7.23276 1.90882L6.90308 1.53291ZM7.06758 1.97086H7.06792V1.47086H7.06758V1.97086ZM7.23957 1.53943L7.23941 1.53928L6.89575 1.90245L6.89591 1.90261L7.23957 1.53943ZM6.90291 1.53306C6.34559 2.0218 4.98512 3.28039 3.76208 4.94078C2.54352 6.5951 1.43499 8.68356 1.43499 10.8265H1.93499C1.93499 8.84438 2.96717 6.86302 4.16466 5.23731C5.35767 3.61768 6.68858 2.38605 7.23258 1.90898L6.90291 1.53306ZM1.43499 10.8265C1.43499 13.9383 3.96547 16.4686 7.0771 16.4686V15.9686C4.2416 15.9686 1.93499 13.6621 1.93499 10.8265H1.43499ZM7.0771 16.4686C10.1887 16.4686 12.7192 13.9381 12.7192 10.8265H12.2192C12.2192 13.662 9.9126 15.9686 7.0771 15.9686V16.4686ZM12.7192 10.8266C12.7199 8.85881 11.6011 6.7848 10.381 5.09977C9.15393 3.40526 7.7907 2.05899 7.23923 1.53911L6.89625 1.90293C7.4368 2.41252 8.77497 3.73443 9.976 5.39302C11.1839 7.06109 12.2198 9.02509 12.2192 10.8264L12.7192 10.8266Z" fill="#E59F71"/>
</svg>
